REM DIRINDEX 1\6,1\2\7,1\2\8,1\2\9,1\3\10,1\3\11,1\4\12,1\4\13,1\4\14,1\5\15,1\5\16,1\5\17
REM DIRNAME folder01,folder02,folder03,folder04,folder05,folder06,folder07,folder08,folder09,folder10,folder11,folder12,folder13,folder14,folder15,folder16,folder17
TITLE ""
FILE "3Q_t2_0408-0423.mp3" MP3
  TRACK 01 AUDIO
    TITLE "7:cjc041_4639"
    INDEX 01 00:00:00
  TRACK 02 AUDIO
    TITLE "0:"
    INDEX 01 00:00:72
  TRACK 03 AUDIO
    TITLE "8:cjc041_4640"
    INDEX 01 00:01:44
  TRACK 04 AUDIO
    TITLE "0:"
    INDEX 01 00:03:41
  TRACK 05 AUDIO
    TITLE "9:cjc041_4641"
    INDEX 01 00:04:19
  TRACK 06 AUDIO
    TITLE "0:"
    INDEX 01 00:05:24
  TRACK 07 AUDIO
    TITLE "7:cjc041_4642"
    INDEX 01 00:07:02
  TRACK 08 AUDIO
    TITLE "0:"
    INDEX 01 00:08:13
  TRACK 09 AUDIO
    TITLE "8:cjc041_4643"
    INDEX 01 00:08:64
  TRACK 10 AUDIO
    TITLE "0:"
    INDEX 01 00:09:57
  TRACK 11 AUDIO
    TITLE "9:cjc041_4644"
    INDEX 01 00:10:37
  TRACK 12 AUDIO
    TITLE "0:"
    INDEX 01 00:11:46
  TRACK 13 AUDIO
    TITLE "7:cjc041_4645"
    INDEX 01 00:13:28
  TRACK 14 AUDIO
    TITLE "0:"
    INDEX 01 00:14:37
  TRACK 15 AUDIO
    TITLE "8:cjc041_4646"
    INDEX 01 00:15:15
  TRACK 16 AUDIO
    TITLE "0:"
    INDEX 01 00:16:26
  TRACK 17 AUDIO
    TITLE "9:cjc041_4647"
    INDEX 01 00:17:02
  TRACK 18 AUDIO
    TITLE "0:"
    INDEX 01 00:18:13
  TRACK 19 AUDIO
    TITLE "7:cjc041_4648"
    INDEX 01 00:19:67
  TRACK 20 AUDIO
    TITLE "0:"
    INDEX 01 00:21:17
  TRACK 21 AUDIO
    TITLE "8:cjc041_4649"
    INDEX 01 00:21:62
  TRACK 22 AUDIO
    TITLE "0:"
    INDEX 01 00:23:65
  TRACK 23 AUDIO
    TITLE "9:cjc041_4650"
    INDEX 01 00:24:39
  TRACK 24 AUDIO
    TITLE "0:"
    INDEX 01 00:25:66
  TRACK 25 AUDIO
    TITLE "7:cjc041_4651"
    INDEX 01 00:27:47
  TRACK 26 AUDIO
    TITLE "0:"
    INDEX 01 00:29:15
  TRACK 27 AUDIO
    TITLE "8:cjc041_4652"
    INDEX 01 00:29:68
  TRACK 28 AUDIO
    TITLE "0:"
    INDEX 01 00:31:02
  TRACK 29 AUDIO
    TITLE "9:cjc041_4653"
    INDEX 01 00:31:59
  TRACK 30 AUDIO
    TITLE "0:"
    INDEX 01 00:33:30
  TRACK 31 AUDIO
    TITLE "7:cjc041_4654"
    INDEX 01 00:35:12
  TRACK 32 AUDIO
    TITLE "0:"
    INDEX 01 00:36:25
  TRACK 33 AUDIO
    TITLE "8:cjc041_4655"
    INDEX 01 00:37:03
  TRACK 34 AUDIO
    TITLE "0:"
    INDEX 01 00:39:15
  TRACK 35 AUDIO
    TITLE "9:cjc041_4656"
    INDEX 01 00:39:66
  TRACK 36 AUDIO
    TITLE "0:"
    INDEX 01 00:41:10
  TRACK 37 AUDIO
    TITLE "7:cjc041_4657"
    INDEX 01 00:42:65
  TRACK 38 AUDIO
    TITLE "0:"
    INDEX 01 00:44:01
  TRACK 39 AUDIO
    TITLE "8:cjc041_4658"
    INDEX 01 00:44:54
  TRACK 40 AUDIO
    TITLE "0:"
    INDEX 01 00:47:28
  TRACK 41 AUDIO
    TITLE "9:cjc041_4659"
    INDEX 01 00:48:04
  TRACK 42 AUDIO
    TITLE "0:"
    INDEX 01 00:49:18
  TRACK 43 AUDIO
    TITLE "7:cjc041_4660"
    INDEX 01 00:50:74
  TRACK 44 AUDIO
    TITLE "0:"
    INDEX 01 00:52:18
  TRACK 45 AUDIO
    TITLE "8:cjc041_4661"
    INDEX 01 00:52:71
  TRACK 46 AUDIO
    TITLE "0:"
    INDEX 01 00:54:13
  TRACK 47 AUDIO
    TITLE "9:cjc041_4662"
    INDEX 01 00:54:66
  TRACK 48 AUDIO
    TITLE "0:"
    INDEX 01 00:56:06
  TRACK 49 AUDIO
    TITLE "7:cjc041_4663"
    INDEX 01 00:57:62
  TRACK 50 AUDIO
    TITLE "0:"
    INDEX 01 00:59:24
  TRACK 51 AUDIO
    TITLE "8:cjc041_4664"
    INDEX 01 01:00:00
  TRACK 52 AUDIO
    TITLE "0:"
    INDEX 01 01:00:68
  TRACK 53 AUDIO
    TITLE "9:cjc041_4665"
    INDEX 01 01:01:46
  TRACK 54 AUDIO
    TITLE "0:"
    INDEX 01 01:03:10
  TRACK 55 AUDIO
    TITLE "7:cjc041_4666"
    INDEX 01 01:04:70
  TRACK 56 AUDIO
    TITLE "0:"
    INDEX 01 01:06:18
  TRACK 57 AUDIO
    TITLE "8:cjc041_4667"
    INDEX 01 01:06:67
  TRACK 58 AUDIO
    TITLE "0:"
    INDEX 01 01:08:21
  TRACK 59 AUDIO
    TITLE "9:cjc041_4668"
    INDEX 01 01:09:03
  TRACK 60 AUDIO
    TITLE "0:"
    INDEX 01 01:10:26
  TRACK 61 AUDIO
    TITLE "7:cjc041_4669"
    INDEX 01 01:12:13
  TRACK 62 AUDIO
    TITLE "0:"
    INDEX 01 01:13:45
  TRACK 63 AUDIO
    TITLE "8:cjc041_4670"
    INDEX 01 01:14:23
  TRACK 64 AUDIO
    TITLE "0:"
    INDEX 01 01:17:16
  TRACK 65 AUDIO
    TITLE "9:cjc041_4671"
    INDEX 01 01:17:69
  TRACK 66 AUDIO
    TITLE "0:"
    INDEX 01 01:19:28
  TRACK 67 AUDIO
    TITLE "7:cjc041_4672"
    INDEX 01 01:21:12
  TRACK 68 AUDIO
    TITLE "0:"
    INDEX 01 01:22:29
  TRACK 69 AUDIO
    TITLE "8:cjc041_4673"
    INDEX 01 01:23:09
  TRACK 70 AUDIO
    TITLE "0:"
    INDEX 01 01:24:41
  TRACK 71 AUDIO
    TITLE "9:cjc041_4674"
    INDEX 01 01:25:17
  TRACK 72 AUDIO
    TITLE "0:"
    INDEX 01 01:26:34
  TRACK 73 AUDIO
    TITLE "7:cjc041_4675"
    INDEX 01 01:28:10
  TRACK 74 AUDIO
    TITLE "0:"
    INDEX 01 01:29:27
  TRACK 75 AUDIO
    TITLE "8:cjc041_4676"
    INDEX 01 01:30:05
  TRACK 76 AUDIO
    TITLE "0:"
    INDEX 01 01:31:65
  TRACK 77 AUDIO
    TITLE "9:cjc041_4677"
    INDEX 01 01:32:43
  TRACK 78 AUDIO
    TITLE "0:"
    INDEX 01 01:33:60
  TRACK 79 AUDIO
    TITLE "7:cjc041_4678"
    INDEX 01 01:35:41
  TRACK 80 AUDIO
    TITLE "0:"
    INDEX 01 01:36:74
  TRACK 81 AUDIO
    TITLE "8:cjc041_4679"
    INDEX 01 01:37:46
  TRACK 82 AUDIO
    TITLE "0:"
    INDEX 01 01:38:34
  TRACK 83 AUDIO
    TITLE "9:cjc041_4680"
    INDEX 01 01:39:12
  TRACK 84 AUDIO
    TITLE "0:"
    INDEX 01 01:40:50
  TRACK 85 AUDIO
    TITLE "7:cjc041_4681"
    INDEX 01 01:42:33
  TRACK 86 AUDIO
    TITLE "0:"
    INDEX 01 01:43:45
  TRACK 87 AUDIO
    TITLE "8:cjc041_4682"
    INDEX 01 01:44:19
  TRACK 88 AUDIO
    TITLE "0:"
    INDEX 01 01:45:34
  TRACK 89 AUDIO
    TITLE "9:cjc041_4683"
    INDEX 01 01:46:10
  TRACK 90 AUDIO
    TITLE "0:"
    INDEX 01 01:47:25
  TRACK 91 AUDIO
    TITLE "7:cjc041_4684"
    INDEX 01 01:49:10
  TRACK 92 AUDIO
    TITLE "0:"
    INDEX 01 01:50:31
  TRACK 93 AUDIO
    TITLE "8:cjc041_4685"
    INDEX 01 01:51:07
  TRACK 94 AUDIO
    TITLE "0:"
    INDEX 01 01:52:30
  TRACK 95 AUDIO
    TITLE "9:cjc041_4686"
    INDEX 01 01:53:08
  TRACK 96 AUDIO
    TITLE "0:"
    INDEX 01 01:54:31
